<?xml version="1.0" encoding="UTF-8" standalone="no"?>
<!DOCTYPE svg PUBLIC "-//W3C//DTD SVG 1.0//EN" "http://www.w3.org/TR/2001/PR-SVG-20010719/DTD/svg10.dtd">
<svg width="33cm" height="40cm" viewBox="113 106 645 799" xmlns="http://www.w3.org/2000/svg" xmlns:xlink="http://www.w3.org/1999/xlink">
  <g>
    <rect style="fill: #9f9f9f" x="227" y="467" width="97.5" height="97.5"/>
    <rect style="fill: none; fill-opacity:0; stroke-width: 3; stroke: #000000" x="227" y="467" width="97.5" height="97.5"/>
    <rect style="fill: none; fill-opacity:0; stroke-width: 3; stroke: #000000" x="227" y="467" width="97.5" height="97.5"/>
    <path style="fill: none; fill-opacity:0; stroke-width: 3.9; stroke: #ffffff" d="M 281.783 482.783 C 281.783,531.533 291.533,521.783 242.783,521.783"/>
    <path style="fill: none; fill-opacity:0; stroke-width: 2.4; stroke: #000000" d="M 281.783 482.783 C 281.783,531.533 291.533,521.783 242.783,521.783"/>
    <polygon style="fill: #000000" points="286.475,490.4 281.6,480.65 276.725,490.4 "/>
    <polygon style="fill: none; fill-opacity:0; stroke-width: 3; stroke: #000000" points="286.475,490.4 281.6,480.65 276.725,490.4 "/>
    <polygon style="fill: #000000" points="250.4,516.725 240.65,521.6 250.4,526.475 "/>
    <polygon style="fill: none; fill-opacity:0; stroke-width: 3; stroke: #000000" points="250.4,516.725 240.65,521.6 250.4,526.475 "/>
    <path style="fill: none; fill-opacity:0; stroke-width: 3.9; stroke: #ffffff" d="M 310.711 510.207 C 261.961,510.207 271.711,500.457 271.711,549.207"/>
    <path style="fill: none; fill-opacity:0; stroke-width: 2.4; stroke: #000000" d="M 310.711 510.207 C 261.961,510.207 271.711,500.457 271.711,549.207"/>
    <polygon style="fill: #000000" points="302.075,514.775 311.825,509.9 302.075,505.025 "/>
    <polygon style="fill: none; fill-opacity:0; stroke-width: 3; stroke: #000000" points="302.075,514.775 311.825,509.9 302.075,505.025 "/>
    <polygon style="fill: #000000" points="266,541.1 270.875,550.85 275.75,541.1 "/>
    <polygon style="fill: none; fill-opacity:0; stroke-width: 3; stroke: #000000" points="266,541.1 270.875,550.85 275.75,541.1 "/>
  </g>
  <g>
    <rect style="fill: #9f9f9f" x="471.2" y="186.6" width="97.5" height="97.5"/>
    <rect style="fill: none; fill-opacity:0; stroke-width: 3; stroke: #000000" x="471.2" y="186.6" width="97.5" height="97.5"/>
    <rect style="fill: none; fill-opacity:0; stroke-width: 3; stroke: #000000" x="471.2" y="186.6" width="97.5" height="97.5"/>
    <path style="fill: none; fill-opacity:0; stroke-width: 3.9; stroke: #ffffff" d="M 525.983 202.383 C 525.983,251.133 535.733,241.383 486.983,241.383"/>
    <path style="fill: none; fill-opacity:0; stroke-width: 2.4; stroke: #000000" d="M 525.983 202.383 C 525.983,251.133 535.733,241.383 486.983,241.383"/>
    <polygon style="fill: #000000" points="530.675,210 525.8,200.25 520.925,210 "/>
    <polygon style="fill: none; fill-opacity:0; stroke-width: 3; stroke: #000000" points="530.675,210 525.8,200.25 520.925,210 "/>
    <polygon style="fill: #000000" points="494.6,236.325 484.85,241.2 494.6,246.075 "/>
    <polygon style="fill: none; fill-opacity:0; stroke-width: 3; stroke: #000000" points="494.6,236.325 484.85,241.2 494.6,246.075 "/>
    <path style="fill: none; fill-opacity:0; stroke-width: 3.9; stroke: #ffffff" d="M 554.911 229.807 C 506.161,229.807 515.911,220.057 515.911,268.807"/>
    <path style="fill: none; fill-opacity:0; stroke-width: 2.4; stroke: #000000" d="M 554.911 229.807 C 506.161,229.807 515.911,220.057 515.911,268.807"/>
    <polygon style="fill: #000000" points="546.275,234.375 556.025,229.5 546.275,224.625 "/>
    <polygon style="fill: none; fill-opacity:0; stroke-width: 3; stroke: #000000" points="546.275,234.375 556.025,229.5 546.275,224.625 "/>
    <polygon style="fill: #000000" points="510.2,260.7 515.075,270.45 519.95,260.7 "/>
    <polygon style="fill: none; fill-opacity:0; stroke-width: 3; stroke: #000000" points="510.2,260.7 515.075,270.45 519.95,260.7 "/>
  </g>
  <g>
    <rect style="fill: #9f9f9f" x="659.9" y="462.7" width="97.5" height="97.5"/>
    <rect style="fill: none; fill-opacity:0; stroke-width: 3; stroke: #000000" x="659.9" y="462.7" width="97.5" height="97.5"/>
    <rect style="fill: none; fill-opacity:0; stroke-width: 3; stroke: #000000" x="659.9" y="462.7" width="97.5" height="97.5"/>
    <path style="fill: none; fill-opacity:0; stroke-width: 3.9; stroke: #ffffff" d="M 714.683 478.483 C 714.683,527.233 724.433,517.483 675.683,517.483"/>
    <path style="fill: none; fill-opacity:0; stroke-width: 2.4; stroke: #000000" d="M 714.683 478.483 C 714.683,527.233 724.433,517.483 675.683,517.483"/>
    <polygon style="fill: #000000" points="719.375,486.1 714.5,476.35 709.625,486.1 "/>
    <polygon style="fill: none; fill-opacity:0; stroke-width: 3; stroke: #000000" points="719.375,486.1 714.5,476.35 709.625,486.1 "/>
    <polygon style="fill: #000000" points="683.3,512.425 673.55,517.3 683.3,522.175 "/>
    <polygon style="fill: none; fill-opacity:0; stroke-width: 3; stroke: #000000" points="683.3,512.425 673.55,517.3 683.3,522.175 "/>
    <path style="fill: none; fill-opacity:0; stroke-width: 3.9; stroke: #ffffff" d="M 743.611 505.907 C 694.861,505.907 704.611,496.157 704.611,544.907"/>
    <path style="fill: none; fill-opacity:0; stroke-width: 2.4; stroke: #000000" d="M 743.611 505.907 C 694.861,505.907 704.611,496.157 704.611,544.907"/>
    <polygon style="fill: #000000" points="734.975,510.475 744.725,505.6 734.975,500.725 "/>
    <polygon style="fill: none; fill-opacity:0; stroke-width: 3; stroke: #000000" points="734.975,510.475 744.725,505.6 734.975,500.725 "/>
    <polygon style="fill: #000000" points="698.9,536.8 703.775,546.55 708.65,536.8 "/>
    <polygon style="fill: none; fill-opacity:0; stroke-width: 3; stroke: #000000" points="698.9,536.8 703.775,546.55 708.65,536.8 "/>
  </g>
  <polyline style="fill: none; fill-opacity:0; stroke-width: 3; stroke: #000000" points="471.2,235.35 275.75,235.35 275.75,467 "/>
  <polyline style="fill: none; fill-opacity:0; stroke-width: 3; stroke: #000000" points="708.65,462.7 708.65,235.35 568.7,235.35 "/>
  <g>
    <line style="fill: none; fill-opacity:0; stroke-width: 2; stroke: #000000" x1="114.005" y1="644.904" x2="561.995" y2="688.096"/>
    <line style="fill: none; fill-opacity:0; stroke-width: 2; stroke: #000000" x1="178.714" y1="651.143" x2="176.795" y2="671.05"/>
    <line style="fill: none; fill-opacity:0; stroke-width: 2; stroke: #000000" x1="266.58" y1="659.614" x2="275.75" y2="564.5"/>
    <line style="fill: none; fill-opacity:0; stroke-width: 2; stroke: #000000" x1="306.143" y1="663.429" x2="304.224" y2="683.336"/>
    <line style="fill: none; fill-opacity:0; stroke-width: 2; stroke: #000000" x1="369.857" y1="669.571" x2="371.776" y2="649.664"/>
    <line style="fill: none; fill-opacity:0; stroke-width: 2; stroke: #000000" x1="514.976" y1="683.563" x2="503.75" y2="800"/>
    <line style="fill: none; fill-opacity:0; stroke-width: 2; stroke: #000000" x1="497.287" y1="681.857" x2="499.206" y2="661.95"/>
  </g>
  <g>
    <rect style="fill: #9f9f9f" x="452" y="800" width="103.5" height="103.5"/>
    <rect style="fill: none; fill-opacity:0; stroke-width: 3; stroke: #000000" x="452" y="800" width="103.5" height="103.5"/>
    <rect style="fill: none; fill-opacity:0; stroke-width: 3; stroke: #000000" x="452" y="800" width="103.5" height="103.5"/>
    <path style="fill: none; fill-opacity:0; stroke-width: 3.9; stroke: #ffffff" d="M 510.154 816.754 C 510.154,868.504 520.504,858.154 468.754,858.154"/>
    <path style="fill: none; fill-opacity:0; stroke-width: 2.4; stroke: #000000" d="M 510.154 816.754 C 510.154,868.504 520.504,858.154 468.754,858.154"/>
    <polygon style="fill: #000000" points="515.135,824.84 509.96,814.49 504.785,824.84 "/>
    <polygon style="fill: none; fill-opacity:0; stroke-width: 3; stroke: #000000" points="515.135,824.84 509.96,814.49 504.785,824.84 "/>
    <polygon style="fill: #000000" points="476.84,852.785 466.49,857.96 476.84,863.135 "/>
    <polygon style="fill: none; fill-opacity:0; stroke-width: 3; stroke: #000000" points="476.84,852.785 466.49,857.96 476.84,863.135 "/>
    <path style="fill: none; fill-opacity:0; stroke-width: 3.9; stroke: #ffffff" d="M 540.863 845.866 C 489.113,845.866 499.463,835.516 499.463,887.266"/>
    <path style="fill: none; fill-opacity:0; stroke-width: 2.4; stroke: #000000" d="M 540.863 845.866 C 489.113,845.866 499.463,835.516 499.463,887.266"/>
    <polygon style="fill: #000000" points="531.695,850.715 542.045,845.54 531.695,840.365 "/>
    <polygon style="fill: none; fill-opacity:0; stroke-width: 3; stroke: #000000" points="531.695,850.715 542.045,845.54 531.695,840.365 "/>
    <polygon style="fill: #000000" points="493.4,878.66 498.575,889.01 503.75,878.66 "/>
    <polygon style="fill: none; fill-opacity:0; stroke-width: 3; stroke: #000000" points="493.4,878.66 498.575,889.01 503.75,878.66 "/>
  </g>
  <text font-size="12.8" style="fill: #000000;text-anchor:middle;font-family:sans-serif;font-style:normal;font-weight:normal" x="518" y="118">
    <tspan x="518" y="118">Random Collections of Devices</tspan>
  </text>
  <g>
    <polygon style="fill: #ffffff" points="667,463.127 679.685,456.277 692.369,463.127 679.685,469.215 "/>
    <path style="fill: none; fill-opacity:0; stroke-width: 3; stroke: #000000" d="M 678.416 411.627 L 679.685,412.135"/>
    <path style="fill: none; fill-opacity:0; stroke-width: 3; stroke: #000000" d="M 677.148 416.955 L 679.685,418.223"/>
    <path style="fill: none; fill-opacity:0; stroke-width: 3; stroke: #000000" d="M 675.879 422.79 L 679.685,425.073"/>
    <path style="fill: none; fill-opacity:0; stroke-width: 3; stroke: #000000" d="M 674.611 428.625 L 679.685,431.162"/>
    <path style="fill: none; fill-opacity:0; stroke-width: 3; stroke: #000000" d="M 673.342 434.206 L 679.685,437.25"/>
    <path style="fill: none; fill-opacity:0; stroke-width: 3; stroke: #000000" d="M 672.074 440.041 L 679.685,444.1"/>
    <path style="fill: none; fill-opacity:0; stroke-width: 3; stroke: #000000" d="M 670.805 445.876 L 679.685,450.189"/>
    <path style="fill: none; fill-opacity:0; stroke-width: 3; stroke: #000000" d="M 669.537 451.457 L 679.685,456.277"/>
    <path style="fill: none; fill-opacity:0; stroke-width: 3; stroke: #000000" d="M 668.268 457.038 L 679.685,463.127"/>
    <path style="fill: none; fill-opacity:0; stroke-width: 3; stroke: #000000" d="M 680.953 411.627 L 679.685,412.135"/>
    <path style="fill: none; fill-opacity:0; stroke-width: 3; stroke: #000000" d="M 682.221 416.955 L 679.685,418.223"/>
    <path style="fill: none; fill-opacity:0; stroke-width: 3; stroke: #000000" d="M 683.49 423.044 L 679.685,425.073"/>
    <path style="fill: none; fill-opacity:0; stroke-width: 3; stroke: #000000" d="M 684.505 428.625 L 679.685,431.162"/>
    <path style="fill: none; fill-opacity:0; stroke-width: 3; stroke: #000000" d="M 686.027 434.206 L 679.685,437.25"/>
    <path style="fill: none; fill-opacity:0; stroke-width: 3; stroke: #000000" d="M 687.549 440.041 L 679.685,444.1"/>
    <path style="fill: none; fill-opacity:0; stroke-width: 3; stroke: #000000" d="M 688.564 445.876 L 679.685,450.189"/>
    <path style="fill: none; fill-opacity:0; stroke-width: 3; stroke: #000000" d="M 689.832 451.457 L 679.685,456.277"/>
    <path style="fill: none; fill-opacity:0; stroke-width: 3; stroke: #000000" d="M 691.101 457.038 L 679.685,463.127"/>
    <path style="fill: none; fill-opacity:0; stroke-width: 3; stroke: #000000" d="M 679.685 406.046 L 678.162,399.197 L 679.685,402.621 L 676.513,393.108"/>
    <polygon style="fill: none; fill-opacity:0; stroke-width: 6; stroke: #000000" points="679.685,406.046 692.369,463.127 679.685,469.215 667,463.127 "/>
    <path style="fill: none; fill-opacity:0; stroke-width: 6; stroke: #000000" d="M 667 463.127 L 679.685,456.277 L 692.369,463.127"/>
    <path style="fill: none; fill-opacity:0; stroke-width: 6; stroke: #000000" d="M 679.685 406.046 L 679.685,469.215"/>
    <text font-size="12.8" style="fill: #000000;text-anchor:middle;font-family:sans-serif;font-style:normal;font-weight:normal" x="679.685" y="483.752">
      <tspan x="679.685" y="483.752">wifi</tspan>
    </text>
  </g>
  <g>
    <polygon style="fill: #ffffff" points="527.99,797.011 540.675,790.161 553.359,797.011 540.675,803.099 "/>
    <path style="fill: none; fill-opacity:0; stroke-width: 3; stroke: #000000" d="M 539.406 745.511 L 540.675,746.019"/>
    <path style="fill: none; fill-opacity:0; stroke-width: 3; stroke: #000000" d="M 538.138 750.839 L 540.675,752.107"/>
    <path style="fill: none; fill-opacity:0; stroke-width: 3; stroke: #000000" d="M 536.869 756.674 L 540.675,758.957"/>
    <path style="fill: none; fill-opacity:0; stroke-width: 3; stroke: #000000" d="M 535.601 762.509 L 540.675,765.046"/>
    <path style="fill: none; fill-opacity:0; stroke-width: 3; stroke: #000000" d="M 534.332 768.09 L 540.675,771.134"/>
    <path style="fill: none; fill-opacity:0; stroke-width: 3; stroke: #000000" d="M 533.064 773.925 L 540.675,777.984"/>
    <path style="fill: none; fill-opacity:0; stroke-width: 3; stroke: #000000" d="M 531.795 779.76 L 540.675,784.073"/>
    <path style="fill: none; fill-opacity:0; stroke-width: 3; stroke: #000000" d="M 530.527 785.341 L 540.675,790.161"/>
    <path style="fill: none; fill-opacity:0; stroke-width: 3; stroke: #000000" d="M 529.258 790.922 L 540.675,797.011"/>
    <path style="fill: none; fill-opacity:0; stroke-width: 3; stroke: #000000" d="M 541.943 745.511 L 540.675,746.019"/>
    <path style="fill: none; fill-opacity:0; stroke-width: 3; stroke: #000000" d="M 543.211 750.839 L 540.675,752.107"/>
    <path style="fill: none; fill-opacity:0; stroke-width: 3; stroke: #000000" d="M 544.48 756.928 L 540.675,758.957"/>
    <path style="fill: none; fill-opacity:0; stroke-width: 3; stroke: #000000" d="M 545.495 762.509 L 540.675,765.046"/>
    <path style="fill: none; fill-opacity:0; stroke-width: 3; stroke: #000000" d="M 547.017 768.09 L 540.675,771.134"/>
    <path style="fill: none; fill-opacity:0; stroke-width: 3; stroke: #000000" d="M 548.539 773.925 L 540.675,777.984"/>
    <path style="fill: none; fill-opacity:0; stroke-width: 3; stroke: #000000" d="M 549.554 779.76 L 540.675,784.073"/>
    <path style="fill: none; fill-opacity:0; stroke-width: 3; stroke: #000000" d="M 550.822 785.341 L 540.675,790.161"/>
    <path style="fill: none; fill-opacity:0; stroke-width: 3; stroke: #000000" d="M 552.091 790.922 L 540.675,797.011"/>
    <path style="fill: none; fill-opacity:0; stroke-width: 3; stroke: #000000" d="M 540.675 739.93 L 539.152,733.081 L 540.675,736.505 L 537.503,726.992"/>
    <polygon style="fill: none; fill-opacity:0; stroke-width: 6; stroke: #000000" points="540.675,739.93 553.359,797.011 540.675,803.099 527.99,797.011 "/>
    <path style="fill: none; fill-opacity:0; stroke-width: 6; stroke: #000000" d="M 527.99 797.011 L 540.675,790.161 L 553.359,797.011"/>
    <path style="fill: none; fill-opacity:0; stroke-width: 6; stroke: #000000" d="M 540.675 739.93 L 540.675,803.099"/>
    <text font-size="12.8" style="fill: #000000;text-anchor:middle;font-family:sans-serif;font-style:normal;font-weight:normal" x="540.675" y="817.636">
      <tspan x="540.675" y="817.636">wifi</tspan>
    </text>
  </g>
  <text font-size="12.8" style="fill: #000000;text-anchor:start;font-family:sans-serif;font-style:normal;font-weight:normal" x="544.324" y="259.726">
    <tspan x="544.324" y="259.726">R1</tspan>
  </text>
  <text font-size="12.8" style="fill: #000000;text-anchor:start;font-family:sans-serif;font-style:normal;font-weight:normal" x="300.126" y="540.126">
    <tspan x="300.126" y="540.126">R2</tspan>
  </text>
  <text font-size="12.8" style="fill: #000000;text-anchor:start;font-family:sans-serif;font-style:normal;font-weight:normal" x="733.024" y="535.826">
    <tspan x="733.024" y="535.826">R3</tspan>
  </text>
  <text font-size="12.8" style="fill: #000000;text-anchor:start;font-family:sans-serif;font-style:normal;font-weight:normal" x="529.624" y="877.626">
    <tspan x="529.624" y="877.626">R4</tspan>
  </text>
</svg>
