<?xml version="1.0" encoding="UTF-8" standalone="no"?>
<!DOCTYPE svg PUBLIC "-//W3C//DTD SVG 1.0//EN" "http://www.w3.org/TR/2001/PR-SVG-20010719/DTD/svg10.dtd">
<svg width="39cm" height="44cm" viewBox="90 40 764 865" xmlns="http://www.w3.org/2000/svg" xmlns:xlink="http://www.w3.org/1999/xlink">
  <g>
    <rect style="fill: #9f9f9f" x="227" y="467" width="97.5" height="97.5"/>
    <rect style="fill: none; fill-opacity:0; stroke-width: 3; stroke: #000000" x="227" y="467" width="97.5" height="97.5"/>
    <rect style="fill: none; fill-opacity:0; stroke-width: 3; stroke: #000000" x="227" y="467" width="97.5" height="97.5"/>
    <path style="fill: none; fill-opacity:0; stroke-width: 3.9; stroke: #ffffff" d="M 281.783 482.783 C 281.783,531.533 291.533,521.783 242.783,521.783"/>
    <path style="fill: none; fill-opacity:0; stroke-width: 2.4; stroke: #000000" d="M 281.783 482.783 C 281.783,531.533 291.533,521.783 242.783,521.783"/>
    <polygon style="fill: #000000" points="286.475,490.4 281.6,480.65 276.725,490.4 "/>
    <polygon style="fill: none; fill-opacity:0; stroke-width: 3; stroke: #000000" points="286.475,490.4 281.6,480.65 276.725,490.4 "/>
    <polygon style="fill: #000000" points="250.4,516.725 240.65,521.6 250.4,526.475 "/>
    <polygon style="fill: none; fill-opacity:0; stroke-width: 3; stroke: #000000" points="250.4,516.725 240.65,521.6 250.4,526.475 "/>
    <path style="fill: none; fill-opacity:0; stroke-width: 3.9; stroke: #ffffff" d="M 310.711 510.207 C 261.961,510.207 271.711,500.457 271.711,549.207"/>
    <path style="fill: none; fill-opacity:0; stroke-width: 2.4; stroke: #000000" d="M 310.711 510.207 C 261.961,510.207 271.711,500.457 271.711,549.207"/>
    <polygon style="fill: #000000" points="302.075,514.775 311.825,509.9 302.075,505.025 "/>
    <polygon style="fill: none; fill-opacity:0; stroke-width: 3; stroke: #000000" points="302.075,514.775 311.825,509.9 302.075,505.025 "/>
    <polygon style="fill: #000000" points="266,541.1 270.875,550.85 275.75,541.1 "/>
    <polygon style="fill: none; fill-opacity:0; stroke-width: 3; stroke: #000000" points="266,541.1 270.875,550.85 275.75,541.1 "/>
  </g>
  <g>
    <rect style="fill: #9f9f9f" x="471.2" y="186.6" width="97.5" height="97.5"/>
    <rect style="fill: none; fill-opacity:0; stroke-width: 3; stroke: #000000" x="471.2" y="186.6" width="97.5" height="97.5"/>
    <rect style="fill: none; fill-opacity:0; stroke-width: 3; stroke: #000000" x="471.2" y="186.6" width="97.5" height="97.5"/>
    <path style="fill: none; fill-opacity:0; stroke-width: 3.9; stroke: #ffffff" d="M 525.983 202.383 C 525.983,251.133 535.733,241.383 486.983,241.383"/>
    <path style="fill: none; fill-opacity:0; stroke-width: 2.4; stroke: #000000" d="M 525.983 202.383 C 525.983,251.133 535.733,241.383 486.983,241.383"/>
    <polygon style="fill: #000000" points="530.675,210 525.8,200.25 520.925,210 "/>
    <polygon style="fill: none; fill-opacity:0; stroke-width: 3; stroke: #000000" points="530.675,210 525.8,200.25 520.925,210 "/>
    <polygon style="fill: #000000" points="494.6,236.325 484.85,241.2 494.6,246.075 "/>
    <polygon style="fill: none; fill-opacity:0; stroke-width: 3; stroke: #000000" points="494.6,236.325 484.85,241.2 494.6,246.075 "/>
    <path style="fill: none; fill-opacity:0; stroke-width: 3.9; stroke: #ffffff" d="M 554.911 229.807 C 506.161,229.807 515.911,220.057 515.911,268.807"/>
    <path style="fill: none; fill-opacity:0; stroke-width: 2.4; stroke: #000000" d="M 554.911 229.807 C 506.161,229.807 515.911,220.057 515.911,268.807"/>
    <polygon style="fill: #000000" points="546.275,234.375 556.025,229.5 546.275,224.625 "/>
    <polygon style="fill: none; fill-opacity:0; stroke-width: 3; stroke: #000000" points="546.275,234.375 556.025,229.5 546.275,224.625 "/>
    <polygon style="fill: #000000" points="510.2,260.7 515.075,270.45 519.95,260.7 "/>
    <polygon style="fill: none; fill-opacity:0; stroke-width: 3; stroke: #000000" points="510.2,260.7 515.075,270.45 519.95,260.7 "/>
  </g>
  <g>
    <rect style="fill: #9f9f9f" x="659.9" y="462.7" width="97.5" height="97.5"/>
    <rect style="fill: none; fill-opacity:0; stroke-width: 3; stroke: #000000" x="659.9" y="462.7" width="97.5" height="97.5"/>
    <rect style="fill: none; fill-opacity:0; stroke-width: 3; stroke: #000000" x="659.9" y="462.7" width="97.5" height="97.5"/>
    <path style="fill: none; fill-opacity:0; stroke-width: 3.9; stroke: #ffffff" d="M 714.683 478.483 C 714.683,527.233 724.433,517.483 675.683,517.483"/>
    <path style="fill: none; fill-opacity:0; stroke-width: 2.4; stroke: #000000" d="M 714.683 478.483 C 714.683,527.233 724.433,517.483 675.683,517.483"/>
    <polygon style="fill: #000000" points="719.375,486.1 714.5,476.35 709.625,486.1 "/>
    <polygon style="fill: none; fill-opacity:0; stroke-width: 3; stroke: #000000" points="719.375,486.1 714.5,476.35 709.625,486.1 "/>
    <polygon style="fill: #000000" points="683.3,512.425 673.55,517.3 683.3,522.175 "/>
    <polygon style="fill: none; fill-opacity:0; stroke-width: 3; stroke: #000000" points="683.3,512.425 673.55,517.3 683.3,522.175 "/>
    <path style="fill: none; fill-opacity:0; stroke-width: 3.9; stroke: #ffffff" d="M 743.611 505.907 C 694.861,505.907 704.611,496.157 704.611,544.907"/>
    <path style="fill: none; fill-opacity:0; stroke-width: 2.4; stroke: #000000" d="M 743.611 505.907 C 694.861,505.907 704.611,496.157 704.611,544.907"/>
    <polygon style="fill: #000000" points="734.975,510.475 744.725,505.6 734.975,500.725 "/>
    <polygon style="fill: none; fill-opacity:0; stroke-width: 3; stroke: #000000" points="734.975,510.475 744.725,505.6 734.975,500.725 "/>
    <polygon style="fill: #000000" points="698.9,536.8 703.775,546.55 708.65,536.8 "/>
    <polygon style="fill: none; fill-opacity:0; stroke-width: 3; stroke: #000000" points="698.9,536.8 703.775,546.55 708.65,536.8 "/>
  </g>
  <polyline style="fill: none; fill-opacity:0; stroke-width: 3; stroke: #000000" points="471.2,235.35 275.75,235.35 275.75,467 "/>
  <polyline style="fill: none; fill-opacity:0; stroke-width: 3; stroke: #000000" points="708.65,462.7 708.65,235.35 568.7,235.35 "/>
  <g>
    <line style="fill: none; fill-opacity:0; stroke-width: 2; stroke: #000000" x1="114.005" y1="644.904" x2="561.995" y2="688.096"/>
    <line style="fill: none; fill-opacity:0; stroke-width: 2; stroke: #000000" x1="174.03" y1="650.691" x2="166" y2="733.983"/>
    <line style="fill: none; fill-opacity:0; stroke-width: 2; stroke: #000000" x1="266.58" y1="659.614" x2="275.75" y2="564.5"/>
    <line style="fill: none; fill-opacity:0; stroke-width: 2; stroke: #000000" x1="306.143" y1="663.429" x2="304.224" y2="683.336"/>
    <line style="fill: none; fill-opacity:0; stroke-width: 2; stroke: #000000" x1="369.857" y1="669.571" x2="371.776" y2="649.664"/>
    <line style="fill: none; fill-opacity:0; stroke-width: 2; stroke: #000000" x1="514.976" y1="683.563" x2="503.75" y2="800"/>
    <line style="fill: none; fill-opacity:0; stroke-width: 2; stroke: #000000" x1="497.287" y1="681.857" x2="499.206" y2="661.95"/>
  </g>
  <g>
    <rect style="fill: #9f9f9f" x="452" y="800" width="103.5" height="103.5"/>
    <rect style="fill: none; fill-opacity:0; stroke-width: 3; stroke: #000000" x="452" y="800" width="103.5" height="103.5"/>
    <rect style="fill: none; fill-opacity:0; stroke-width: 3; stroke: #000000" x="452" y="800" width="103.5" height="103.5"/>
    <path style="fill: none; fill-opacity:0; stroke-width: 3.9; stroke: #ffffff" d="M 510.154 816.754 C 510.154,868.504 520.504,858.154 468.754,858.154"/>
    <path style="fill: none; fill-opacity:0; stroke-width: 2.4; stroke: #000000" d="M 510.154 816.754 C 510.154,868.504 520.504,858.154 468.754,858.154"/>
    <polygon style="fill: #000000" points="515.135,824.84 509.96,814.49 504.785,824.84 "/>
    <polygon style="fill: none; fill-opacity:0; stroke-width: 3; stroke: #000000" points="515.135,824.84 509.96,814.49 504.785,824.84 "/>
    <polygon style="fill: #000000" points="476.84,852.785 466.49,857.96 476.84,863.135 "/>
    <polygon style="fill: none; fill-opacity:0; stroke-width: 3; stroke: #000000" points="476.84,852.785 466.49,857.96 476.84,863.135 "/>
    <path style="fill: none; fill-opacity:0; stroke-width: 3.9; stroke: #ffffff" d="M 540.863 845.866 C 489.113,845.866 499.463,835.516 499.463,887.266"/>
    <path style="fill: none; fill-opacity:0; stroke-width: 2.4; stroke: #000000" d="M 540.863 845.866 C 489.113,845.866 499.463,835.516 499.463,887.266"/>
    <polygon style="fill: #000000" points="531.695,850.715 542.045,845.54 531.695,840.365 "/>
    <polygon style="fill: none; fill-opacity:0; stroke-width: 3; stroke: #000000" points="531.695,850.715 542.045,845.54 531.695,840.365 "/>
    <polygon style="fill: #000000" points="493.4,878.66 498.575,889.01 503.75,878.66 "/>
    <polygon style="fill: none; fill-opacity:0; stroke-width: 3; stroke: #000000" points="493.4,878.66 498.575,889.01 503.75,878.66 "/>
  </g>
  <text font-size="12.8" style="fill: #000000;text-anchor:middle;font-family:sans-serif;font-style:normal;font-weight:normal" x="518" y="118">
    <tspan x="518" y="118">Random Collections of Devices</tspan>
    <tspan x="518" y="134"></tspan>
  </text>
  <g>
    <polygon style="fill: #ffffff" points="667,463.127 679.685,456.277 692.369,463.127 679.685,469.215 "/>
    <path style="fill: none; fill-opacity:0; stroke-width: 3; stroke: #000000" d="M 678.416 411.627 L 679.685,412.135"/>
    <path style="fill: none; fill-opacity:0; stroke-width: 3; stroke: #000000" d="M 677.148 416.955 L 679.685,418.223"/>
    <path style="fill: none; fill-opacity:0; stroke-width: 3; stroke: #000000" d="M 675.879 422.79 L 679.685,425.073"/>
    <path style="fill: none; fill-opacity:0; stroke-width: 3; stroke: #000000" d="M 674.611 428.625 L 679.685,431.162"/>
    <path style="fill: none; fill-opacity:0; stroke-width: 3; stroke: #000000" d="M 673.342 434.206 L 679.685,437.25"/>
    <path style="fill: none; fill-opacity:0; stroke-width: 3; stroke: #000000" d="M 672.074 440.041 L 679.685,444.1"/>
    <path style="fill: none; fill-opacity:0; stroke-width: 3; stroke: #000000" d="M 670.805 445.876 L 679.685,450.189"/>
    <path style="fill: none; fill-opacity:0; stroke-width: 3; stroke: #000000" d="M 669.537 451.457 L 679.685,456.277"/>
    <path style="fill: none; fill-opacity:0; stroke-width: 3; stroke: #000000" d="M 668.268 457.038 L 679.685,463.127"/>
    <path style="fill: none; fill-opacity:0; stroke-width: 3; stroke: #000000" d="M 680.953 411.627 L 679.685,412.135"/>
    <path style="fill: none; fill-opacity:0; stroke-width: 3; stroke: #000000" d="M 682.221 416.955 L 679.685,418.223"/>
    <path style="fill: none; fill-opacity:0; stroke-width: 3; stroke: #000000" d="M 683.49 423.044 L 679.685,425.073"/>
    <path style="fill: none; fill-opacity:0; stroke-width: 3; stroke: #000000" d="M 684.505 428.625 L 679.685,431.162"/>
    <path style="fill: none; fill-opacity:0; stroke-width: 3; stroke: #000000" d="M 686.027 434.206 L 679.685,437.25"/>
    <path style="fill: none; fill-opacity:0; stroke-width: 3; stroke: #000000" d="M 687.549 440.041 L 679.685,444.1"/>
    <path style="fill: none; fill-opacity:0; stroke-width: 3; stroke: #000000" d="M 688.564 445.876 L 679.685,450.189"/>
    <path style="fill: none; fill-opacity:0; stroke-width: 3; stroke: #000000" d="M 689.832 451.457 L 679.685,456.277"/>
    <path style="fill: none; fill-opacity:0; stroke-width: 3; stroke: #000000" d="M 691.101 457.038 L 679.685,463.127"/>
    <path style="fill: none; fill-opacity:0; stroke-width: 3; stroke: #000000" d="M 679.685 406.046 L 678.162,399.197 L 679.685,402.621 L 676.513,393.108"/>
    <polygon style="fill: none; fill-opacity:0; stroke-width: 6; stroke: #000000" points="679.685,406.046 692.369,463.127 679.685,469.215 667,463.127 "/>
    <path style="fill: none; fill-opacity:0; stroke-width: 6; stroke: #000000" d="M 667 463.127 L 679.685,456.277 L 692.369,463.127"/>
    <path style="fill: none; fill-opacity:0; stroke-width: 6; stroke: #000000" d="M 679.685 406.046 L 679.685,469.215"/>
    <text font-size="12.8" style="fill: #000000;text-anchor:middle;font-family:sans-serif;font-style:normal;font-weight:normal" x="679.685" y="483.752">
      <tspan x="679.685" y="483.752">wifi</tspan>
    </text>
  </g>
  <g>
    <polygon style="fill: #ffffff" points="527.99,797.011 540.675,790.161 553.359,797.011 540.675,803.099 "/>
    <path style="fill: none; fill-opacity:0; stroke-width: 3; stroke: #000000" d="M 539.406 745.511 L 540.675,746.019"/>
    <path style="fill: none; fill-opacity:0; stroke-width: 3; stroke: #000000" d="M 538.138 750.839 L 540.675,752.107"/>
    <path style="fill: none; fill-opacity:0; stroke-width: 3; stroke: #000000" d="M 536.869 756.674 L 540.675,758.957"/>
    <path style="fill: none; fill-opacity:0; stroke-width: 3; stroke: #000000" d="M 535.601 762.509 L 540.675,765.046"/>
    <path style="fill: none; fill-opacity:0; stroke-width: 3; stroke: #000000" d="M 534.332 768.09 L 540.675,771.134"/>
    <path style="fill: none; fill-opacity:0; stroke-width: 3; stroke: #000000" d="M 533.064 773.925 L 540.675,777.984"/>
    <path style="fill: none; fill-opacity:0; stroke-width: 3; stroke: #000000" d="M 531.795 779.76 L 540.675,784.073"/>
    <path style="fill: none; fill-opacity:0; stroke-width: 3; stroke: #000000" d="M 530.527 785.341 L 540.675,790.161"/>
    <path style="fill: none; fill-opacity:0; stroke-width: 3; stroke: #000000" d="M 529.258 790.922 L 540.675,797.011"/>
    <path style="fill: none; fill-opacity:0; stroke-width: 3; stroke: #000000" d="M 541.943 745.511 L 540.675,746.019"/>
    <path style="fill: none; fill-opacity:0; stroke-width: 3; stroke: #000000" d="M 543.211 750.839 L 540.675,752.107"/>
    <path style="fill: none; fill-opacity:0; stroke-width: 3; stroke: #000000" d="M 544.48 756.928 L 540.675,758.957"/>
    <path style="fill: none; fill-opacity:0; stroke-width: 3; stroke: #000000" d="M 545.495 762.509 L 540.675,765.046"/>
    <path style="fill: none; fill-opacity:0; stroke-width: 3; stroke: #000000" d="M 547.017 768.09 L 540.675,771.134"/>
    <path style="fill: none; fill-opacity:0; stroke-width: 3; stroke: #000000" d="M 548.539 773.925 L 540.675,777.984"/>
    <path style="fill: none; fill-opacity:0; stroke-width: 3; stroke: #000000" d="M 549.554 779.76 L 540.675,784.073"/>
    <path style="fill: none; fill-opacity:0; stroke-width: 3; stroke: #000000" d="M 550.822 785.341 L 540.675,790.161"/>
    <path style="fill: none; fill-opacity:0; stroke-width: 3; stroke: #000000" d="M 552.091 790.922 L 540.675,797.011"/>
    <path style="fill: none; fill-opacity:0; stroke-width: 3; stroke: #000000" d="M 540.675 739.93 L 539.152,733.081 L 540.675,736.505 L 537.503,726.992"/>
    <polygon style="fill: none; fill-opacity:0; stroke-width: 6; stroke: #000000" points="540.675,739.93 553.359,797.011 540.675,803.099 527.99,797.011 "/>
    <path style="fill: none; fill-opacity:0; stroke-width: 6; stroke: #000000" d="M 527.99 797.011 L 540.675,790.161 L 553.359,797.011"/>
    <path style="fill: none; fill-opacity:0; stroke-width: 6; stroke: #000000" d="M 540.675 739.93 L 540.675,803.099"/>
    <text font-size="12.8" style="fill: #000000;text-anchor:middle;font-family:sans-serif;font-style:normal;font-weight:normal" x="540.675" y="817.636">
      <tspan x="540.675" y="817.636">wifi</tspan>
    </text>
  </g>
  <g>
    <rect style="fill: #000000" x="653.475" y="40.25" width="97.05" height="19.75"/>
    <text font-size="16.9333" style="fill: #add8e6;text-anchor:middle;font-family:sans-serif;font-style:normal;font-weight:normal" x="702" y="56">
      <tspan x="702" y="56">DISCOVERY</tspan>
    </text>
  </g>
  <text font-size="16.9333" style="fill: #ffa500;text-anchor:middle;font-family:sans-serif;font-style:normal;font-weight:normal" x="705.224" y="115.85">
    <tspan x="705.224" y="115.85">AWARENESS</tspan>
  </text>
  <g>
    <path style="fill: #ffffff" d="M 716.178 703.716 C 702.432,703.381 675.772,710.421 679.521,725.505 C 683.27,740.59 701.182,743.942 708.68,739.584 C 716.178,735.226 697.017,760.702 733.674,767.407 C 770.331,774.111 789.076,763.384 783.661,755.674 C 778.246,747.964 815.736,773.776 833.232,759.026 C 850.728,744.277 815.32,730.198 822.818,732.209 C 830.316,734.221 853.227,731.539 845.729,706.398 C 838.231,681.257 770.748,700.699 778.246,697.012 C 785.744,693.325 766.999,674.888 743.672,678.575 C 720.344,682.263 718.689,688.954 716.19,703.703 L 716.178,703.716z"/>
    <path style="fill: none; fill-opacity:0; stroke-width: 3; stroke-dasharray: 4; stroke: #ffa500" d="M 716.178 703.716 C 702.432,703.381 675.772,710.421 679.521,725.505 C 683.27,740.59 701.182,743.942 708.68,739.584 C 716.178,735.226 697.017,760.702 733.674,767.407 C 770.331,774.111 789.076,763.384 783.661,755.674 C 778.246,747.964 815.736,773.776 833.232,759.026 C 850.728,744.277 815.32,730.198 822.818,732.209 C 830.316,734.221 853.227,731.539 845.729,706.398 C 838.231,681.257 770.748,700.699 778.246,697.012 C 785.744,693.325 766.999,674.888 743.672,678.575 C 720.344,682.263 718.689,688.954 716.19,703.703 L 716.178,703.716"/>
    <text font-size="12.8" style="fill: #000000;text-anchor:middle;font-family:sans-serif;font-style:normal;font-weight:normal" x="769.256" y="722.248">
      <tspan x="769.256" y="722.248">Uplink</tspan>
      <tspan x="769.256" y="738.248">Connectivity</tspan>
    </text>
  </g>
  <g>
    <path style="fill: none; fill-opacity:0; stroke-width: 3; stroke-dasharray: 4; stroke: #ffa500" d="M 696.159 686.848 C 672,623 596,508 658.872,447.618"/>
    <polygon style="fill: none; fill-opacity:0; stroke-width: 3; stroke: #ffa500" points="698.813,693.863 690.598,686.28 696.159,686.848 699.951,682.741 "/>
    <polygon style="fill: none; fill-opacity:0; stroke-width: 3; stroke: #ffa500" points="664.281,442.423 660.532,452.956 658.872,447.618 653.605,445.744 "/>
  </g>
  <g>
    <polygon style="fill: none; fill-opacity:0; stroke-width: 2; stroke: #000000" points="222.022,776 194.011,818.017 137.988,818.017 109.977,776 137.988,733.983 194.011,733.983 "/>
    <text font-size="12.8" style="fill: #000000;text-anchor:middle;font-family:monospace;font-style:normal;font-weight:normal" x="166" y="766.5">
      <tspan x="166" y="766.5">BGP </tspan>
      <tspan x="166" y="782.5">peer</tspan>
    </text>
  </g>
  <g>
    <path style="fill: none; fill-opacity:0; stroke-width: 3; stroke-dasharray: 4; stroke: #ffa500" d="M 170.945 724.322 C 210,648 422,644 476.68,770.043"/>
    <polygon style="fill: none; fill-opacity:0; stroke-width: 3; stroke: #ffa500" points="167.528,730.998 167.632,719.818 170.945,724.322 176.534,724.374 "/>
    <polygon style="fill: none; fill-opacity:0; stroke-width: 3; stroke: #ffa500" points="479.665,776.923 471.098,769.739 476.68,770.043 480.272,765.759 "/>
  </g>
  <g>
    <path style="fill: none; fill-opacity:0; stroke-width: 3; stroke-dasharray: 4; stroke: #ffa500" d="M 252.971 448.381 C 178,305 213,132 451.75,192.647"/>
    <polygon style="fill: none; fill-opacity:0; stroke-width: 3; stroke: #ffa500" points="256.446,455.028 247.381,448.483 252.971,448.381 256.243,443.849 "/>
    <polygon style="fill: none; fill-opacity:0; stroke-width: 3; stroke: #ffa500" points="459.019,194.493 448.096,196.877 451.75,192.647 450.558,187.185 "/>
  </g>
  <g>
    <path style="fill: none; fill-opacity:0; stroke-width: 3; stroke-dasharray: 4; stroke: #ffa500" d="M 591.209 218.315 C 750,161 777,303 734.144,444.611"/>
    <polygon style="fill: none; fill-opacity:0; stroke-width: 3; stroke: #ffa500" points="584.155,220.861 591.863,212.763 591.209,218.315 595.258,222.169 "/>
    <polygon style="fill: none; fill-opacity:0; stroke-width: 3; stroke: #ffa500" points="731.972,451.79 730.082,440.77 734.144,444.611 739.654,443.667 "/>
  </g>
  <g>
    <path style="fill: none; fill-opacity:0; stroke-width: 3; stroke-dasharray: 4; stroke: #ffa500" d="M 348.225 519.169 C 415,536 537,637 494.144,778.611"/>
    <polygon style="fill: none; fill-opacity:0; stroke-width: 3; stroke: #ffa500" points="340.952,517.336 351.871,514.932 348.225,519.169 349.427,524.628 "/>
    <polygon style="fill: none; fill-opacity:0; stroke-width: 3; stroke: #ffa500" points="491.972,785.79 490.082,774.77 494.144,778.611 499.654,777.667 "/>
  </g>
  <g>
    <path style="fill: none; fill-opacity:0; stroke-width: 3; stroke-dasharray: 4; stroke: #ffa500" d="M 539.12 710.863 C 494,593 545,420 658.363,396.963"/>
    <polygon style="fill: none; fill-opacity:0; stroke-width: 3; stroke: #ffa500" points="541.801,717.868 533.556,710.316 539.12,710.863 542.895,706.741 "/>
    <polygon style="fill: none; fill-opacity:0; stroke-width: 3; stroke: #ffa500" points="665.713,395.47 656.909,402.361 658.363,396.963 654.918,392.561 "/>
  </g>
  <g>
    <path style="fill: none; fill-opacity:0; stroke-width: 3; stroke-dasharray: 4; stroke: #ffa500" d="M 159.945 713.338 C 199,637.016 251,680 259.971,585.805"/>
    <polygon style="fill: none; fill-opacity:0; stroke-width: 3; stroke: #ffa500" points="156.528,720.014 156.632,708.834 159.945,713.338 165.534,713.39 "/>
    <polygon style="fill: none; fill-opacity:0; stroke-width: 3; stroke: #ffa500" points="260.682,578.339 264.711,588.768 259.971,585.805 254.756,587.82 "/>
  </g>
  <text font-size="12.8" style="fill: #000000;text-anchor:start;font-family:sans-serif;font-style:normal;font-weight:normal" x="90" y="644">
    <tspan x="90" y="644">IX </tspan>
    <tspan x="90" y="660">switch</tspan>
    <tspan x="90" y="676">fabric?</tspan>
  </text>
  <text font-size="12.8" style="fill: #000000;text-anchor:start;font-family:sans-serif;font-style:normal;font-weight:normal" x="681" y="638">
    <tspan x="681" y="638">DHCP?</tspan>
  </text>
  <text font-size="12.8" style="fill: #000000;text-anchor:start;font-family:sans-serif;font-style:normal;font-weight:normal" x="536.9" y="268.2">
    <tspan x="536.9" y="268.2">R1</tspan>
  </text>
  <text font-size="12.8" style="fill: #000000;text-anchor:start;font-family:sans-serif;font-style:normal;font-weight:normal" x="292.7" y="548.6">
    <tspan x="292.7" y="548.6">R2</tspan>
  </text>
  <text font-size="12.8" style="fill: #000000;text-anchor:start;font-family:sans-serif;font-style:normal;font-weight:normal" x="725.6" y="544.3">
    <tspan x="725.6" y="544.3">R3</tspan>
  </text>
  <text font-size="12.8" style="fill: #000000;text-anchor:start;font-family:sans-serif;font-style:normal;font-weight:normal" x="522.2" y="886.1">
    <tspan x="522.2" y="886.1">R4</tspan>
  </text>
</svg>
